# This file uses centimeters as units for non-parametric coordinates.

mtllib LowpolyMilk.mtl
g default
v -9.022896 0.019993 -9.629100
v -0.977104 0.019993 -9.629100
v -9.022896 17.028385 -9.629100
v -0.977104 17.028385 -9.629100
v -9.022896 17.028385 -17.674891
v -0.977104 17.028385 -17.674891
v -9.022896 0.019993 -17.674891
v -0.977104 0.019993 -17.674891
v -8.261501 20.982027 -13.476290
v -1.738499 20.982027 -13.476290
v -1.738499 20.982027 -13.827700
v -8.261501 20.982027 -13.827700
v -8.261501 22.297834 -13.476290
v -1.738499 22.297834 -13.476290
v -1.738499 22.297834 -13.827700
v -8.261501 22.297834 -13.827700
v -7.718906 22.462976 -13.518978
v -2.281094 22.462976 -13.518978
v -2.281094 22.462976 -13.785011
v -7.718906 22.462976 -13.785011
v -1.011955 17.216114 -10.232533
v -1.011955 17.216114 -17.071457
v -1.659142 20.702072 -13.801344
v -1.659142 20.702072 -13.502645
v -8.988041 17.216114 -10.232533
v -8.988041 17.216114 -17.071457
v -8.340858 20.702072 -13.502645
v -8.340858 20.702072 -13.801344
v -1.115086 17.437262 -10.819598
v -1.115086 17.437262 -16.484390
v -3.138695 19.281094 -13.775703
v -3.138695 19.281094 -13.528286
v -8.884914 17.437262 -10.819598
v -8.884914 17.437262 -16.484390
v -6.861307 19.281094 -13.528286
v -6.861307 19.281094 -13.775703
v -3.693604 19.500546 -12.241415
v -4.245752 19.898170 -12.624510
v -5.000000 20.043711 -12.764732
v -5.754248 19.898170 -12.624510
v -6.306396 19.500546 -12.241415
v -6.508497 18.957378 -11.718098
v -6.306396 18.414211 -11.194781
v -5.754248 18.016586 -10.811687
v -5.000000 17.871044 -10.671462
v -4.245752 18.016586 -10.811687
v -3.693604 18.414211 -11.194781
v -3.491501 18.957378 -11.718098
v -3.693604 20.513172 -11.190379
v -4.245752 20.910797 -11.573474
v -5.000000 21.056339 -11.713696
v -5.754248 20.910797 -11.573474
v -6.306396 20.513172 -11.190379
v -6.508497 19.970005 -10.667062
v -6.306396 19.426838 -10.143744
v -5.754248 19.029213 -9.760650
v -5.000000 18.883673 -9.620427
v -4.245752 19.029213 -9.760650
v -3.693604 19.426838 -10.143744
v -3.491501 19.970005 -10.667062
v -5.000000 19.970005 -10.667062
vt 0.007334 0.001499
vt 0.235578 0.004045
vt 0.230122 0.486330
vt 0.001992 0.483772
vt 0.721259 0.264343
vt 0.722835 0.030030
vt 0.734299 0.030108
vt 0.732722 0.264420
vt 0.902566 0.454539
vt 0.706854 0.415161
vt 0.790089 0.001448
vt 0.985804 0.040817
vt 0.396806 0.715099
vt 0.407342 0.566403
vt 0.556038 0.576940
vt 0.545502 0.725636
vt 0.487835 0.001567
vt 0.717163 0.010611
vt 0.698558 0.495558
vt 0.469123 0.486714
vt 0.245581 0.001568
vt 0.472804 0.006781
vt 0.461964 0.487465
vt 0.234581 0.482296
vt 0.206763 0.642470
vt 0.021842 0.640394
vt 0.985537 0.374820
vt 0.971678 0.481967
vt 0.943179 0.425228
vt 0.943537 0.422437
vt 0.857050 0.585002
vt 0.698378 0.553079
vt 0.915946 0.573413
vt 0.920559 0.468400
vt 0.952826 0.521897
vt 0.952701 0.524632
vt 0.206335 0.679762
vt 0.021429 0.677682
vt 0.594285 0.606002
vt 0.603779 0.605918
vt 0.602246 0.640870
vt 0.593023 0.640385
vt 0.850613 0.617008
vt 0.691941 0.585087
vt 0.350492 0.607379
vt 0.360093 0.607517
vt 0.358250 0.641984
vt 0.349188 0.641495
vt 0.190899 0.684424
vt 0.036756 0.682690
vt 0.599855 0.655518
vt 0.592991 0.654968
vt 0.836578 0.618501
vt 0.704304 0.591890
vt 0.355994 0.656160
vt 0.349327 0.655675
vt 0.996811 0.352516
vt 0.976908 0.506404
vt 0.974797 0.494068
vt 0.991633 0.363907
vt 0.602725 0.598296
vt 0.683088 0.501371
vt 0.594737 0.597063
vt 0.488120 0.491769
vt 0.906941 0.595777
vt 0.911741 0.442614
vt 0.916536 0.456827
vt 0.910954 0.584381
vt 0.358929 0.599345
vt 0.445252 0.493870
vt 0.351433 0.598584
vt 0.252973 0.488431
vt 0.914759 0.424549
vt 0.915883 0.415866
vt 0.980543 0.520549
vt 0.980002 0.529063
vt 0.970577 0.208041
vt 0.972359 0.194259
vt 0.997907 0.195910
vt 0.997783 0.210199
vt 0.973829 0.181295
vt 0.997900 0.182575
vt 0.975015 0.169009
vt 0.997807 0.170001
vt 0.975954 0.157331
vt 0.997707 0.158114
vt 0.976694 0.146131
vt 0.997676 0.146774
vt 0.977261 0.135247
vt 0.997715 0.135773
vt 0.977649 0.124519
vt 0.997810 0.124988
vt 0.977964 0.113839
vt 0.998008 0.114311
vt 0.967532 0.267857
vt 0.968103 0.252940
vt 0.995848 0.254105
vt 0.995308 0.269012
vt 0.968726 0.238004
vt 0.996421 0.239320
vt 0.969520 0.223018
vt 0.997055 0.224643
vt 0.288806 0.546942
vt 0.303273 0.563445
vt 0.264653 0.582965
vt 0.307475 0.585966
vt 0.300736 0.607048
vt 0.284208 0.622108
vt 0.262063 0.626889
vt 0.240228 0.619559
vt 0.225141 0.602201
vt 0.220899 0.579706
vt 0.228624 0.558200
vt 0.246067 0.543625
vt 0.267985 0.539668
vn -0.000000 0.000000 1.000000
vn -0.000000 0.000000 1.000000
vn -0.000000 0.000000 1.000000
vn -0.000000 0.000000 1.000000
vn 0.000000 1.000000 0.000000
vn 0.000000 1.000000 0.000000
vn 0.000000 1.000000 0.000000
vn 0.000000 1.000000 0.000000
vn 0.000000 0.000000 -1.000000
vn 0.000000 0.000000 -1.000000
vn 0.000000 0.000000 -1.000000
vn 0.000000 0.000000 -1.000000
vn 0.000000 -1.000000 0.000000
vn 0.000000 -1.000000 0.000000
vn 0.000000 -1.000000 0.000000
vn 0.000000 -1.000000 0.000000
vn 1.000000 0.000000 0.000000
vn 1.000000 0.000000 0.000000
vn 1.000000 0.000000 0.000000
vn 1.000000 0.000000 0.000000
vn -1.000000 0.000000 -0.000000
vn -1.000000 0.000000 -0.000000
vn -1.000000 0.000000 -0.000000
vn -1.000000 0.000000 -0.000000
vn -0.000000 0.697392 0.716690
vn -0.000000 0.697392 0.716690
vn -0.000000 0.697392 0.716690
vn -0.000000 0.697392 0.716690
vn 0.673509 0.739179 0.000000
vn 0.673509 0.739179 0.000000
vn 0.673509 0.739179 0.000000
vn 0.673509 0.739179 0.000000
vn 0.000000 0.697393 -0.716689
vn 0.000000 0.697393 -0.716689
vn 0.000000 0.697393 -0.716689
vn 0.000000 0.697393 -0.716689
vn -0.673511 0.739177 -0.000000
vn -0.673511 0.739177 -0.000000
vn -0.673511 0.739177 -0.000000
vn -0.673511 0.739177 -0.000000
vn -0.000000 0.000000 1.000000
vn -0.000000 0.000000 1.000000
vn -0.000000 0.000000 1.000000
vn -0.000000 0.000000 1.000000
vn 1.000000 0.000000 0.000000
vn 1.000000 0.000000 0.000000
vn 1.000000 0.000000 0.000000
vn 1.000000 0.000000 0.000000
vn 0.000000 0.000000 -1.000000
vn 0.000000 0.000000 -1.000000
vn 0.000000 0.000000 -1.000000
vn 0.000000 0.000000 -1.000000
vn -1.000000 0.000000 -0.000000
vn -1.000000 0.000000 -0.000000
vn -1.000000 0.000000 -0.000000
vn -1.000000 0.000000 -0.000000
vn -0.000000 0.250270 0.968176
vn -0.000000 0.250270 0.968176
vn -0.000000 0.250270 0.968176
vn -0.000000 0.250270 0.968176
vn 0.291168 0.956672 0.000000
vn 0.291168 0.956672 0.000000
vn 0.291168 0.956672 0.000000
vn 0.291168 0.956672 0.000000
vn 0.000000 0.250270 -0.968176
vn 0.000000 0.250270 -0.968176
vn 0.000000 0.250270 -0.968176
vn 0.000000 0.250270 -0.968176
vn -0.291167 0.956672 -0.000000
vn -0.291167 0.956672 -0.000000
vn -0.291167 0.956672 -0.000000
vn -0.291167 0.956672 -0.000000
vn 0.983201 0.182527 0.000000
vn 0.983201 0.182527 0.000000
vn 0.983201 0.182527 0.000000
vn 0.983201 0.182527 0.000000
vn 0.974873 0.219716 -0.036719
vn 0.974873 0.219716 -0.036719
vn 0.974873 0.219716 -0.036719
vn 0.974873 0.219716 -0.036719
vn 0.962094 0.272720 0.000000
vn 0.962094 0.272720 0.000000
vn 0.962094 0.272720 0.000000
vn 0.962094 0.272720 0.000000
vn 0.974875 0.219706 0.036718
vn 0.974875 0.219706 0.036718
vn 0.974875 0.219706 0.036718
vn 0.974875 0.219706 0.036718
vn -0.983197 0.182546 -0.000000
vn -0.983197 0.182546 -0.000000
vn -0.983197 0.182546 -0.000000
vn -0.983197 0.182546 -0.000000
vn -0.974876 0.219703 0.036714
vn -0.974876 0.219703 0.036714
vn -0.974876 0.219703 0.036714
vn -0.974876 0.219703 0.036714
vn -0.962094 0.272717 -0.000000
vn -0.962094 0.272717 -0.000000
vn -0.962094 0.272717 -0.000000
vn -0.962094 0.272717 -0.000000
vn -0.974876 0.219703 -0.036714
vn -0.974876 0.219703 -0.036714
vn -0.974876 0.219703 -0.036714
vn -0.974876 0.219703 -0.036714
vn 0.906300 0.422635 0.000000
vn 0.906300 0.422635 0.000000
vn 0.906300 0.422635 0.000000
vn 0.906300 0.422635 0.000000
vn 0.597048 -0.447603 0.665722
vn 0.597048 -0.447603 0.665722
vn 0.597048 -0.447603 0.665722
vn 0.597048 -0.447603 0.665722
vn 0.692685 -0.721240 0.000000
vn 0.692685 -0.721240 0.000000
vn 0.692685 -0.721240 0.000000
vn 0.692685 -0.721240 0.000000
vn 0.597048 -0.447603 -0.665722
vn 0.597048 -0.447603 -0.665722
vn 0.597048 -0.447603 -0.665722
vn 0.597048 -0.447603 -0.665722
vn -0.906301 0.422633 -0.000000
vn -0.906301 0.422633 -0.000000
vn -0.906301 0.422633 -0.000000
vn -0.906301 0.422633 -0.000000
vn -0.597050 -0.447601 -0.665722
vn -0.597050 -0.447601 -0.665722
vn -0.597049 -0.447601 -0.665722
vn -0.597050 -0.447601 -0.665722
vn -0.692685 -0.721240 -0.000000
vn -0.692685 -0.721240 -0.000000
vn -0.692685 -0.721240 -0.000000
vn -0.692685 -0.721240 -0.000000
vn -0.597050 -0.447601 0.665721
vn -0.597050 -0.447601 0.665721
vn -0.597050 -0.447601 0.665721
vn -0.597050 -0.447601 0.665721
vn 0.707107 0.509217 -0.490610
vn 0.707107 0.509216 -0.490610
vn 0.707107 0.509217 -0.490610
vn 0.707107 0.509216 -0.490610
vn 0.258818 0.695605 -0.670184
vn 0.258818 0.695605 -0.670184
vn 0.258818 0.695605 -0.670184
vn 0.258818 0.695605 -0.670184
vn -0.258820 0.695604 -0.670185
vn -0.258820 0.695603 -0.670185
vn -0.258820 0.695604 -0.670185
vn -0.258820 0.695604 -0.670185
vn -0.707107 0.509218 -0.490609
vn -0.707107 0.509218 -0.490609
vn -0.707107 0.509218 -0.490609
vn -0.707107 0.509218 -0.490609
vn -0.965926 0.186388 -0.179576
vn -0.965926 0.186388 -0.179576
vn -0.965926 0.186388 -0.179576
vn -0.965926 0.186388 -0.179576
vn -0.965926 -0.186386 0.179576
vn -0.965926 -0.186386 0.179576
vn -0.965926 -0.186386 0.179576
vn -0.965926 -0.186386 0.179576
vn -0.707106 -0.509219 0.490609
vn -0.707106 -0.509219 0.490609
vn -0.707106 -0.509219 0.490609
vn -0.707106 -0.509219 0.490609
vn -0.258819 -0.695604 0.670185
vn -0.258819 -0.695604 0.670185
vn -0.258819 -0.695604 0.670185
vn -0.258819 -0.695604 0.670185
vn 0.258819 -0.695603 0.670186
vn 0.258819 -0.695603 0.670186
vn 0.258819 -0.695603 0.670186
vn 0.258819 -0.695603 0.670186
vn 0.707107 -0.509217 0.490610
vn 0.707107 -0.509217 0.490610
vn 0.707107 -0.509217 0.490610
vn 0.707107 -0.509217 0.490610
vn 0.965925 -0.186389 0.179577
vn 0.965925 -0.186389 0.179577
vn 0.965925 -0.186389 0.179577
vn 0.965925 -0.186389 0.179577
vn 0.965925 0.186389 -0.179578
vn 0.965925 0.186389 -0.179578
vn 0.965925 0.186389 -0.179578
vn 0.965925 0.186389 -0.179578
vn -0.000002 0.693826 0.720143
vn -0.000000 0.693826 0.720143
vn -0.000000 0.693826 0.720142
vn -0.000000 0.693826 0.720143
vn -0.000000 0.693826 0.720142
vn -0.000000 0.693826 0.720142
vn -0.000000 0.693826 0.720142
vn -0.000000 0.693827 0.720141
vn -0.000000 0.693826 0.720142
vn -0.000000 0.693827 0.720141
vn 0.000002 0.693826 0.720143
vn -0.000000 0.693826 0.720142
vn 0.000002 0.693826 0.720143
vn -0.000000 0.693826 0.720143
vn -0.000000 0.693826 0.720142
vn -0.000000 0.693826 0.720143
vn -0.000001 0.693827 0.720142
vn -0.000000 0.693826 0.720142
vn -0.000001 0.693827 0.720142
vn -0.000001 0.693828 0.720141
vn -0.000000 0.693826 0.720142
vn -0.000001 0.693828 0.720141
vn -0.000000 0.693827 0.720141
vn -0.000000 0.693826 0.720142
vn -0.000000 0.693827 0.720141
vn -0.000000 0.693826 0.720142
vn -0.000000 0.693826 0.720142
vn -0.000000 0.693826 0.720142
vn -0.000000 0.693826 0.720142
vn -0.000000 0.693826 0.720142
vn -0.000000 0.693826 0.720142
vn -0.000000 0.693826 0.720143
vn -0.000000 0.693826 0.720142
vn -0.000000 0.693826 0.720143
vn -0.000002 0.693826 0.720143
vn -0.000000 0.693826 0.720142
s off
g Milk_Geo:MilkGeo
usemtl lambert5SG
f 1/1/1 2/2/2 4/3/3 3/4/4
f 17/5/5 18/6/6 19/7/7 20/8/8
f 5/9/9 6/10/10 8/11/11 7/12/12
f 7/13/13 8/14/14 2/15/15 1/16/16
f 2/17/17 8/18/18 6/19/19 4/20/20
f 7/21/21 1/22/22 3/23/23 5/24/24
f 3/4/25 4/3/26 10/25/27 9/26/28
f 29/27/29 30/28/30 31/29/31 32/30/32
f 6/10/33 5/9/34 12/31/35 11/32/36
f 34/33/37 33/34/38 35/35/39 36/36/40
f 9/26/41 10/25/42 14/37/43 13/38/44
f 10/39/45 11/40/46 15/41/47 14/42/48
f 11/32/49 12/31/50 16/43/51 15/44/52
f 12/45/53 9/46/54 13/47/55 16/48/56
f 13/38/57 14/37/58 18/49/59 17/50/60
f 14/42/61 15/41/62 19/51/63 18/52/64
f 15/44/65 16/43/66 20/53/67 19/54/68
f 16/48/69 13/47/70 17/55/71 20/56/72
f 4/57/73 6/58/74 22/59/75 21/60/76
f 6/19/77 11/40/78 23/61/79 22/62/80
f 11/40/81 10/39/82 24/63/83 23/61/84
f 10/39/85 4/20/86 21/64/87 24/63/88
f 5/65/89 3/66/90 25/67/91 26/68/92
f 3/23/93 9/46/94 27/69/95 25/70/96
f 9/46/97 12/45/98 28/71/99 27/69/100
f 12/45/101 5/24/102 26/72/103 28/71/104
f 21/60/105 22/59/106 30/28/107 29/27/108
f 22/59/109 23/73/110 31/29/111 30/28/112
f 23/73/113 24/74/114 32/30/115 31/29/116
f 24/74/117 21/60/118 29/27/119 32/30/120
f 26/68/121 25/67/122 33/34/123 34/33/124
f 25/67/125 27/75/126 35/35/127 33/34/128
f 27/75/129 28/76/130 36/36/131 35/35/132
f 28/76/133 26/68/134 34/33/135 36/36/136
f 37/77/137 38/78/138 50/79/139 49/80/140
f 38/78/141 39/81/142 51/82/143 50/79/144
f 39/81/145 40/83/146 52/84/147 51/82/148
f 40/83/149 41/85/150 53/86/151 52/84/152
f 41/85/153 42/87/154 54/88/155 53/86/156
f 42/87/157 43/89/158 55/90/159 54/88/160
f 43/89/161 44/91/162 56/92/163 55/90/164
f 44/91/165 45/93/166 57/94/167 56/92/168
f 45/95/169 46/96/170 58/97/171 57/98/172
f 46/96/173 47/99/174 59/100/175 58/97/176
f 47/99/177 48/101/178 60/102/179 59/100/180
f 48/101/181 37/77/182 49/80/183 60/102/184
f 49/103/185 50/104/186 61/105/187
f 50/104/188 51/106/189 61/105/190
f 51/106/191 52/107/192 61/105/193
f 52/107/194 53/108/195 61/105/196
f 53/108/197 54/109/198 61/105/199
f 54/109/200 55/110/201 61/105/202
f 55/110/203 56/111/204 61/105/205
f 56/111/206 57/112/207 61/105/208
f 57/112/209 58/113/210 61/105/211
f 58/113/212 59/114/213 61/105/214
f 59/114/215 60/115/216 61/105/217
f 60/115/218 49/103/219 61/105/220
